<svg width="72" height="64" viewBox="0 0 72 64" fill="none" xmlns="http://www.w3.org/2000/svg">
<g clip-path="url(#clip0_445_53)">
<path d="M9.48757 55.1736C9.23428 53.9797 7.29479 47.7688 6.90399 46.5335L6.87505 46.4507C4.84871 40.8402 4.04541 35.761 4.43621 30.9165C4.69674 27.6455 6.65794 23.4082 10.4356 21.3172C13.8587 19.4263 17.6725 20.4615 21.9423 21.9038C24.3232 22.7112 26.2121 23.0977 27.8766 23.1322H27.9779C29.5049 23.0977 31.2272 22.7595 33.3404 22.0832L34.2378 17.4112C33.6082 17.6114 33.0148 17.8115 32.4575 17.9978C30.547 18.6396 29.1068 18.9571 27.92 18.9916C26.7404 18.9571 25.293 18.6396 23.3824 17.9978C19.5252 16.6935 13.685 14.7268 8.25006 17.7356C2.76448 20.772 0.434197 26.562 0.108537 30.5991C-0.325678 36.0026 0.542751 41.6131 2.75725 47.755C3.63291 50.5499 5.06582 55.2219 5.23227 55.9948C5.36253 56.5952 5.47832 58.4516 5.55793 59.8111C5.61582 60.7082 5.66648 61.5432 5.71714 62.116C5.82569 63.2547 6.87505 64.0966 8.07637 63.9931C9.27046 63.8896 10.1534 62.882 10.0448 61.7434C9.99415 61.2051 9.9435 60.4184 9.89284 59.5695C9.76257 57.4509 9.66849 56.0017 9.48757 55.1667V55.1736Z" fill="#9B1982"/>
<path d="M45.4188 21.3173C47.1991 22.2972 48.5669 23.7602 49.5511 25.3682L54.7617 26.2791C53.5821 23.0977 51.3169 19.7852 47.5972 17.7287C46.555 17.156 45.5057 16.7626 44.4491 16.5142L45.3682 21.2897C45.3682 21.2897 45.4044 21.3035 45.4188 21.3173Z" fill="#9B1982"/>
<path d="M48.9867 46.4438L48.9577 46.5266C48.5742 47.7619 46.6274 53.9797 46.3741 55.1667C46.1932 56.0017 46.0991 57.4509 45.9689 59.5695C45.9182 60.4115 45.8675 61.2051 45.8169 61.7434C45.7083 62.882 46.5912 63.8896 47.7853 63.9931C47.8505 63.9931 47.9156 64 47.988 64C49.0952 64 50.0432 63.1926 50.1446 62.116C50.2025 61.5432 50.2531 60.7082 50.3038 59.8111C50.3834 58.4585 50.4992 56.6021 50.6294 55.9948C50.7959 55.2219 52.2288 50.543 53.1045 47.755C54.6387 43.4971 55.5143 39.5014 55.7676 35.6506L51.3604 36.4235C51.0492 39.6049 50.2604 42.9243 48.9867 46.4507V46.4438Z" fill="#9B1982"/>
<path d="M44.4853 26.2377L39.4339 0L34.3825 26.2377L6.8678 31.0546L34.3825 35.8715L39.4339 62.1091L44.4853 35.8715L72 31.0546L44.4853 26.2377ZM42.5313 34.0082L39.4339 50.1083L36.3365 34.0082L19.4528 31.0546L36.3365 28.1009L39.4339 12.0009L42.5313 28.1009L59.415 31.0546L42.5313 34.0082Z" fill="#9B1982"/>
</g>
<defs>
<clipPath id="clip0_445_53">
<rect width="72" height="64" fill="white"/>
</clipPath>
</defs>
</svg>
