<svg id="instagram-svgrepo-com" xmlns="http://www.w3.org/2000/svg" width="82.957" height="82.958" viewBox="0 0 82.957 82.958">
  <path id="Caminho_39" data-name="Caminho 39" d="M0,0H82.957V82.957H0Z" fill="none"/>
  <path id="Caminho_40" data-name="Caminho 40" d="M36.566,26.2a10.37,10.37,0,1,0,10.37,10.37A10.37,10.37,0,0,0,36.566,26.2Zm0-6.913A17.283,17.283,0,1,1,19.283,36.566,17.283,17.283,0,0,1,36.566,19.283Zm22.468-.864A4.321,4.321,0,1,1,54.713,14.1,4.321,4.321,0,0,1,59.033,18.419ZM36.566,8.913c-8.552,0-9.948.024-13.926.2a18.778,18.778,0,0,0-6.215,1.148,9.977,9.977,0,0,0-3.733,2.43,9.99,9.99,0,0,0-2.433,3.733,18.752,18.752,0,0,0-1.144,6.215c-.18,3.816-.2,5.15-.2,13.926,0,8.552.024,9.948.2,13.926A18.853,18.853,0,0,0,10.258,56.7a10.747,10.747,0,0,0,6.16,6.163,18.817,18.817,0,0,0,6.222,1.151c3.816.18,5.15.2,13.926.2,8.552,0,9.948-.024,13.926-.2A18.89,18.89,0,0,0,56.7,62.874a10.1,10.1,0,0,0,3.733-2.426,9.994,9.994,0,0,0,2.433-3.733,18.9,18.9,0,0,0,1.148-6.222c.18-3.816.2-5.15.2-13.926,0-8.552-.024-9.948-.2-13.926a18.814,18.814,0,0,0-1.148-6.215,10.062,10.062,0,0,0-2.43-3.733,9.969,9.969,0,0,0-3.733-2.433,18.77,18.77,0,0,0-6.215-1.144C46.676,8.934,45.342,8.913,36.566,8.913Zm0-6.913c9.391,0,10.563.035,14.248.207a25.464,25.464,0,0,1,8.393,1.607A16.853,16.853,0,0,1,65.331,7.8a16.965,16.965,0,0,1,3.985,6.125,25.535,25.535,0,0,1,1.607,8.393c.162,3.685.207,4.856.207,14.248s-.035,10.563-.207,14.248a25.553,25.553,0,0,1-1.607,8.393,17.648,17.648,0,0,1-10.11,10.11,25.534,25.534,0,0,1-8.393,1.607c-3.685.162-4.856.207-14.248.207S26,71.1,22.318,70.924a25.554,25.554,0,0,1-8.393-1.607,17.648,17.648,0,0,1-10.11-10.11,25.445,25.445,0,0,1-1.607-8.393C2.045,47.129,2,45.957,2,36.566S2.035,26,2.207,22.318a25.445,25.445,0,0,1,1.607-8.393A16.868,16.868,0,0,1,7.8,7.8a16.927,16.927,0,0,1,6.125-3.985,25.445,25.445,0,0,1,8.393-1.607C26,2.045,27.174,2,36.566,2Z" transform="translate(4.913 4.913)" fill="#a56e73"/>
</svg>
