<svg width="71" height="62" viewBox="0 0 71 62" fill="none" xmlns="http://www.w3.org/2000/svg">
<g clip-path="url(#clip0_444_29)">
<path d="M60.9833 62C60.9005 62 60.8177 62 60.7257 61.9911C59.208 61.8569 58.0859 60.5515 58.2239 59.0761C58.2882 58.3787 58.3526 57.3594 58.417 56.2596C58.5826 53.5146 58.7022 51.6369 58.9321 50.5549C59.254 49.0081 61.7191 40.9608 62.2158 39.3602L62.2526 39.2529C64.8281 31.9836 65.8491 25.4026 65.3524 19.1257C65.0212 14.8875 62.5286 9.39745 57.7272 6.68819C53.3765 4.23824 48.5291 5.57945 43.1022 7.44822C40.076 8.48542 37.6753 8.99509 35.5598 9.03979H35.431C33.3154 8.99509 30.9147 8.48542 27.8886 7.44822C22.4617 5.57945 17.6143 4.23824 13.2636 6.68819C8.46223 9.39745 5.96955 14.8875 5.63842 19.1257C5.14172 25.3937 6.15351 31.9746 8.73817 39.2529L8.77496 39.3602C9.26246 40.9608 11.7367 49.017 12.0587 50.5549C12.2886 51.6369 12.4082 53.5146 12.5738 56.2596C12.6382 57.3504 12.7025 58.3787 12.7669 59.0761C12.9049 60.5515 11.7827 61.8569 10.2651 61.9911C8.74737 62.1252 7.40445 61.0343 7.26648 59.559C7.19289 58.8168 7.12851 57.7349 7.06412 56.5725C6.96294 54.82 6.81577 52.4148 6.65021 51.6279C6.43865 50.6265 4.61743 44.5642 3.50446 40.9518C0.689848 32.9939 -0.413922 25.7156 0.137963 18.7144C0.551877 13.4926 3.51366 5.99076 10.495 2.04758C17.412 -1.85089 24.8256 0.706365 29.7374 2.38736C32.1657 3.21891 33.9961 3.63022 35.5046 3.67493C37.0131 3.63022 38.8435 3.21891 41.2718 2.38736C46.1836 0.697424 53.5972 -1.85089 60.5142 2.04758C67.5047 5.98182 70.4665 13.4837 70.8712 18.7144C71.4231 25.7156 70.3193 32.985 67.5047 40.9429C66.3918 44.5642 64.5705 50.6175 64.359 51.619C64.1934 52.3969 64.0462 54.8021 63.9451 56.5636C63.8715 57.726 63.8071 58.8079 63.7427 59.55C63.6139 60.9449 62.409 61.9911 61.0017 61.9911L60.9833 62Z" fill="#9B1982"/>
<path d="M30.1605 25.5278C29.9857 26.7617 28.9096 27.7095 27.5942 27.7095C26.1593 27.7095 24.9912 26.574 24.9912 25.1791C24.9912 24.0167 25.8098 23.0421 26.9136 22.747C26.6101 22.6844 26.2973 22.6487 25.9754 22.6487C23.5103 22.6487 21.5143 24.589 21.5143 26.9853C21.5143 29.3816 23.5103 31.3219 25.9754 31.3219C28.4405 31.3219 30.4365 29.3816 30.4365 26.9853C30.4365 26.4667 30.3261 25.9838 30.1605 25.5189V25.5278Z" fill="#9B1982"/>
<path d="M46.8918 27.7186C45.4569 27.7186 44.2888 26.583 44.2888 25.1881C44.2888 24.0615 45.043 23.1227 46.0916 22.7918C45.7513 22.7114 45.4017 22.6577 45.0338 22.6577C42.5687 22.6577 40.5727 24.598 40.5727 26.9943C40.5727 29.3906 42.5687 31.3309 45.0338 31.3309C47.4989 31.3309 49.4949 29.3906 49.4949 26.9943C49.4949 26.6367 49.4397 26.2969 49.3569 25.9661C49.0166 26.9764 48.0508 27.7186 46.8918 27.7186Z" fill="#9B1982"/>
<path d="M36.6268 46.6833C32.0185 46.6833 27.5759 45.3153 24.4393 42.9279C23.8414 42.4719 23.7311 41.6314 24.2002 41.0413C24.6693 40.4601 25.5339 40.3528 26.1409 40.8088C28.7992 42.8296 32.6256 43.992 36.6268 43.992C40.6279 43.992 44.4543 42.8296 47.1126 40.8088C47.7105 40.3528 48.5751 40.4511 49.0534 41.0413C49.5225 41.6225 49.4213 42.463 48.8142 42.9279C45.6777 45.3153 41.235 46.6833 36.6268 46.6833Z" fill="#9B1982"/>
</g>
<defs>
<clipPath id="clip0_444_29">
<rect width="71" height="62" fill="white"/>
</clipPath>
</defs>
</svg>
