<svg width="96" height="42" viewBox="0 0 96 42" fill="none" xmlns="http://www.w3.org/2000/svg">
<g clip-path="url(#clip0_444_34)">
<path d="M42.3996 42C42.3361 42 42.2727 42 42.2093 41.9931C41.0462 41.8894 40.1862 40.88 40.2919 39.7393C40.3272 39.3521 40.3624 38.7852 40.3977 38.1837C40.4893 36.6143 40.5598 35.5427 40.6937 34.8998C40.877 34.0079 42.2586 29.4657 42.5335 28.5669L42.5617 28.484C43.9715 24.4741 44.5213 20.8583 44.2535 17.4153C44.0772 15.1822 42.7873 12.2993 40.299 10.882C38.0927 9.62372 35.5268 10.3496 32.6438 11.3521C30.9027 11.9605 29.507 12.2509 28.2664 12.2785H28.1677C26.9271 12.2509 25.5384 11.9536 23.7903 11.3521C20.9073 10.3496 18.3414 9.62372 16.1351 10.882C13.6468 12.2993 12.3568 15.1822 12.1806 17.4153C11.9128 20.8583 12.4626 24.4741 13.8724 28.484L13.9006 28.5669C14.1755 29.4657 15.5571 34.0079 15.7404 34.8998C15.8743 35.5427 15.9448 36.6143 16.0364 38.1837C16.0717 38.7921 16.1069 39.359 16.1421 39.7462C16.2479 40.8869 15.3879 41.8963 14.2248 42C13.0617 42.1037 12.0326 41.2603 11.9269 40.1195C11.8846 39.6978 11.8493 39.0825 11.8141 38.4257C11.7577 37.5131 11.6801 36.1304 11.5956 35.7294C11.4969 35.2593 10.6369 32.3487 9.86151 29.7975C8.26844 25.2622 7.64813 21.1072 7.96533 17.1042C8.205 14.0346 9.932 9.61681 14.0204 7.30076C18.1018 4.98471 22.3734 6.46422 25.2071 7.44594C26.49 7.88841 27.4487 8.10965 28.217 8.1373C28.9924 8.10965 29.9511 7.89533 31.2269 7.44594C34.0606 6.46422 38.3394 4.9778 42.4137 7.30076C46.495 9.62372 48.222 14.0346 48.4687 17.1042C48.7789 21.1072 48.1586 25.2622 46.5726 29.7975C45.7972 32.3556 44.9372 35.2662 44.8385 35.7294C44.7539 36.1304 44.6764 37.5131 44.62 38.4257C44.5777 39.0825 44.5425 39.6978 44.5072 40.1195C44.4085 41.198 43.4851 42.0069 42.4066 42.0069L42.3996 42Z" fill="#9B1982"/>
<path d="M83.6925 35.9436C83.6291 35.9436 83.5656 35.9436 83.5022 35.9367C82.3391 35.833 81.4791 34.8236 81.5848 33.6829C81.6201 33.2957 81.6553 32.7288 81.6906 32.1204C81.7822 30.551 81.8527 29.4794 81.9866 28.8365C82.1699 27.9446 83.5515 23.4024 83.8264 22.5036L83.8546 22.4207C85.2644 18.4108 85.8142 14.795 85.5464 11.352C85.3701 9.11894 84.0802 6.23597 81.5919 4.81869C79.3856 3.56733 76.8197 4.28634 73.9367 5.28881C72.1956 5.89721 70.7999 6.18758 69.5593 6.21523H69.4606C68.22 6.18758 66.8313 5.89029 65.0832 5.28881C62.2002 4.28634 59.6343 3.56042 57.428 4.81869C54.9397 6.23597 53.6498 9.11894 53.4735 11.352C53.2057 14.795 53.7555 18.4108 55.1653 22.4207L55.1935 22.5036C55.4684 23.4024 56.85 27.9515 57.0333 28.8365C57.1672 29.4794 57.2377 30.551 57.3293 32.1204C57.3646 32.7288 57.3998 33.2957 57.4351 33.676C57.5408 34.8167 56.6808 35.8261 55.5177 35.9298C54.3547 36.0335 53.3255 35.19 53.2198 34.0493C53.1775 33.6276 53.1422 33.0123 53.107 32.3555C53.0506 31.4429 52.9731 30.0602 52.8885 29.6592C52.7898 29.1891 51.9298 26.2784 51.1544 23.7273C49.5613 19.192 48.941 15.037 49.2582 11.034C49.4979 7.96437 51.2249 3.5535 55.3133 1.23054C59.3876 -1.08551 63.6663 0.393996 66.5 1.37572C67.7829 1.81819 68.7416 2.03943 69.51 2.06708C70.2853 2.03943 71.244 1.82511 72.5199 1.37572C75.3535 0.393996 79.6323 -1.09242 83.7066 1.22363C87.7879 3.54659 89.5149 7.95745 89.7546 11.0271C90.0648 15.03 89.4445 19.1851 87.8584 23.7204C87.083 26.2784 86.2231 29.1891 86.1244 29.6592C86.0398 30.0602 85.9623 31.4429 85.9059 32.3555C85.8636 33.0123 85.8283 33.6276 85.7931 34.0493C85.6944 35.1278 84.771 35.9367 83.6925 35.9367V35.9436Z" fill="#9B1982"/>
<path d="M40.0382 26.8592H1.05735C0.472281 26.8592 0 26.396 0 25.8222C0 25.2484 0.472281 24.7851 1.05735 24.7851H40.0382C44.5989 24.7851 46.8404 23.1605 49.4345 21.28C52.24 19.2405 55.419 16.9382 61.8971 16.9382H94.9497C95.5348 16.9382 96.007 17.4014 96.007 17.9753C96.007 18.5491 95.5348 19.0123 94.9497 19.0123H61.8971C56.1239 19.0123 53.4876 20.9274 50.6962 22.953C48.0458 24.875 45.3038 26.8661 40.0452 26.8661L40.0382 26.8592Z" fill="#9B1982"/>
<path d="M35.2731 33.1644H22.8669C21.5064 33.1644 20.3997 32.0789 20.3997 30.7446V29.0439C20.3997 28.47 20.872 28.0068 21.4571 28.0068C22.0421 28.0068 22.5144 28.47 22.5144 29.0439V30.7446C22.5144 30.9313 22.6765 31.0903 22.8669 31.0903H35.2731C35.4634 31.0903 35.6255 30.9313 35.6255 30.7446V29.0439C35.6255 28.47 36.0978 28.0068 36.6829 28.0068C37.2679 28.0068 37.7402 28.47 37.7402 29.0439V30.7446C37.7402 32.0789 36.6335 33.1644 35.2731 33.1644Z" fill="#9B1982"/>
<path d="M36.6829 23.6375C36.0978 23.6375 35.6255 23.1743 35.6255 22.6005V20.8997C35.6255 20.7131 35.4634 20.5541 35.2731 20.5541H22.8669C22.6765 20.5541 22.5144 20.7131 22.5144 20.8997V22.6005C22.5144 23.1743 22.0421 23.6375 21.4571 23.6375C20.872 23.6375 20.3997 23.1743 20.3997 22.6005V20.8997C20.3997 19.5654 21.5064 18.48 22.8669 18.48H35.2731C36.6335 18.48 37.7402 19.5654 37.7402 20.8997V22.6005C37.7402 23.1743 37.2679 23.6375 36.6829 23.6375Z" fill="#9B1982"/>
<path d="M76.2981 25.6287H63.8919C62.5315 25.6287 61.4248 24.5433 61.4248 23.209V21.5082C61.4248 20.9344 61.8971 20.4712 62.4821 20.4712C63.0672 20.4712 63.5395 20.9344 63.5395 21.5082V23.209C63.5395 23.3956 63.7016 23.5546 63.8919 23.5546H76.2981C76.4884 23.5546 76.6506 23.3956 76.6506 23.209V21.5082C76.6506 20.9344 77.1228 20.4712 77.7079 20.4712C78.293 20.4712 78.7653 20.9344 78.7653 21.5082V23.209C78.7653 24.5433 77.6586 25.6287 76.2981 25.6287Z" fill="#9B1982"/>
<path d="M77.7079 16.1087C77.1228 16.1087 76.6506 15.6455 76.6506 15.0717V13.3709C76.6506 13.1843 76.4884 13.0252 76.2981 13.0252H63.8919C63.7016 13.0252 63.5395 13.1843 63.5395 13.3709V15.0717C63.5395 15.6455 63.0672 16.1087 62.4821 16.1087C61.8971 16.1087 61.4248 15.6455 61.4248 15.0717V13.3709C61.4248 12.0366 62.5315 10.9512 63.8919 10.9512H76.2981C77.6586 10.9512 78.7653 12.0366 78.7653 13.3709V15.0717C78.7653 15.6455 78.293 16.1087 77.7079 16.1087Z" fill="#9B1982"/>
</g>
<defs>
<clipPath id="clip0_444_34">
<rect width="96" height="42" fill="white"/>
</clipPath>
</defs>
</svg>
