<svg id="whatsapp-svgrepo-com" xmlns="http://www.w3.org/2000/svg" width="80.662" height="80.662" viewBox="0 0 80.662 80.662">
  <path id="Caminho_37" data-name="Caminho 37" d="M0,0H80.662V80.662H0Z" fill="none"/>
  <path id="Caminho_38" data-name="Caminho 38" d="M19.655,57.435l2.433,1.422a26.879,26.879,0,1,0-9.723-9.723l1.418,2.433-2.195,8.07,8.066-2.2ZM2.013,69.219l4.544-16.7A33.594,33.594,0,1,1,18.7,64.665ZM23.48,19.84a11.383,11.383,0,0,1,1.354-.013c.181.013.363.034.544.054a1.694,1.694,0,0,1,1.321.837q1.5,3.408,2.917,6.856a2.04,2.04,0,0,1-.313,1.8,14.724,14.724,0,0,1-.884,1.25c-.38.487-1.2,1.381-1.2,1.381a1.078,1.078,0,0,0-.205.891,2.973,2.973,0,0,0,.343.689l.2.319a21.291,21.291,0,0,0,3.428,4.262c.4.39.8.79,1.22,1.163a20.2,20.2,0,0,0,5.277,3.361l.017.007c.286.124.43.192.847.37a4.828,4.828,0,0,0,.642.222,1.176,1.176,0,0,0,1.233-.437A39.247,39.247,0,0,1,42.9,39.716v.007a1.62,1.62,0,0,1,1.27-.427,1.74,1.74,0,0,1,.595.134c1.785.817,4.705,2.091,4.705,2.091l1.956.877a1.132,1.132,0,0,1,.639.891,6.488,6.488,0,0,1-.044,1.254,9.36,9.36,0,0,1-.632,2.464,3.882,3.882,0,0,1-.706,1.015,7.993,7.993,0,0,1-1.109.968q-.207.156-.42.3-.627.4-1.287.739a6.688,6.688,0,0,1-2.8.773,17.324,17.324,0,0,1-1.869.047c-.027,0-1.909-.292-1.909-.292a31.754,31.754,0,0,1-12.906-6.876c-.76-.669-1.462-1.388-2.181-2.1a31.961,31.961,0,0,1-6.621-9.216,11.663,11.663,0,0,1-1.112-4.752,9.172,9.172,0,0,1,1.9-5.646,7.949,7.949,0,0,1,.877-1.025,4.278,4.278,0,0,1,.988-.766,3.23,3.23,0,0,1,1.247-.336Z" transform="translate(4.722 4.722)" fill="#a56e73"/>
</svg>
